<?xml version="1.0" standalone="no"?>
<!DOCTYPE svg PUBLIC "-//W3C//DTD SVG 20010904//EN"
 "http://www.w3.org/TR/2001/REC-SVG-20010904/DTD/svg10.dtd">
<svg version="1.0" xmlns="http://www.w3.org/2000/svg"
 width="512.000000pt" height="512.000000pt" viewBox="0 0 512.000000 512.000000"
 preserveAspectRatio="xMidYMid meet">
<metadata>
Created by potrace 1.14, written by Peter Selinger 2001-2017
</metadata>
<g transform="translate(0.000000,512.000000) scale(0.100000,-0.100000)"
fill="#000000" stroke="none">
<path d="M1974 5101 c-22 -10 -50 -31 -62 -46 l-22 -28 39 -71 c22 -39 85
-152 140 -251 55 -99 98 -181 96 -183 -2 -2 -20 1 -42 7 -21 6 -65 11 -98 11
l-60 0 -76 78 c-41 42 -117 123 -168 180 -78 85 -97 101 -115 96 -59 -19 -143
-112 -127 -143 5 -9 66 -81 136 -160 71 -80 123 -147 118 -152 -5 -5 -40 -16
-77 -26 -71 -17 -69 -17 -201 14 -50 11 -79 -61 -64 -158 19 -119 117 -260
217 -310 26 -13 49 -25 51 -26 2 -1 -21 -29 -51 -62 -73 -78 -88 -124 -95
-281 -7 -145 8 -275 37 -335 20 -41 20 -46 5 -276 -8 -129 -18 -257 -21 -285
l-5 -50 -68 -16 c-100 -24 -178 -65 -247 -133 -53 -52 -65 -71 -92 -147 -62
-171 -99 -435 -89 -628 6 -120 23 -175 73 -240 33 -42 35 -48 29 -95 -4 -27
-10 -53 -14 -57 -3 -4 -53 -23 -110 -43 -118 -41 -279 -119 -361 -175 -74 -51
-162 -144 -196 -211 -40 -75 -41 -179 -3 -259 92 -198 426 -390 864 -499 350
-87 680 -128 1115 -138 775 -18 1531 117 1925 344 291 167 400 358 312 547
-70 150 -297 305 -585 401 -46 15 -85 32 -87 39 -2 6 -6 32 -9 58 -5 42 -2 50
29 90 66 82 85 212 66 443 -16 180 -45 330 -83 430 -54 138 -173 234 -340 273
-54 13 -70 21 -73 37 -2 11 -10 130 -18 265 -11 205 -11 253 0 295 32 120 43
203 43 325 0 173 -19 236 -96 320 l-56 60 54 49 c85 77 137 201 153 362 7 71
-8 196 -28 238 -12 24 -17 26 -79 24 -88 -2 -216 -28 -285 -58 l-55 -25 6 28
c3 15 11 58 17 97 17 112 -16 276 -58 292 -10 4 -51 -11 -102 -37 -116 -60
-205 -149 -286 -285 -8 -14 -14 -15 -35 -5 -23 10 -26 18 -26 64 -2 120 -113
261 -191 241 -36 -9 -113 -84 -134 -130 -10 -22 -19 -62 -19 -90 0 -27 -5 -57
-10 -65 -14 -21 -19 -14 -162 240 -67 118 -128 223 -136 233 -19 22 -56 21
-108 -2z m102 -63 c11 -21 14 -43 10 -69 -5 -33 -1 -46 31 -95 l38 -56 3 33
c4 32 4 32 42 -37 28 -48 37 -76 34 -94 -16 -69 -37 -140 -43 -140 -13 0 -53
81 -47 96 6 15 -79 154 -94 154 -30 0 -66 139 -40 155 6 3 10 24 10 46 0 32 3
39 20 39 12 0 26 -12 36 -32z m1111 -203 c17 -64 11 -222 -11 -292 -11 -34
-36 -74 -71 -115 -31 -35 -70 -91 -88 -126 -30 -58 -33 -61 -47 -45 -8 10 -30
29 -48 41 -31 23 -32 25 -26 76 8 64 -6 111 -46 162 l-30 37 27 51 c54 101
257 272 312 263 8 -1 21 -24 28 -52z m-590 25 c18 -10 45 -38 60 -61 24 -36
29 -55 32 -126 3 -81 4 -85 30 -94 55 -20 75 -35 102 -77 36 -57 44 -102 24
-148 -21 -50 -20 -51 23 -73 81 -41 134 -141 118 -224 l-6 -32 -417 0 c-268 0
-421 4 -425 10 -12 16 -9 68 7 122 12 39 27 62 62 92 25 23 52 41 59 41 23 0
26 20 8 65 -15 39 -15 51 -4 92 16 56 72 115 125 133 l37 12 -6 47 c-10 73 17
147 70 199 24 23 50 42 57 42 6 0 26 -9 44 -20z m-934 -55 c29 -33 40 -57 49
-104 10 -53 17 -66 66 -113 35 -35 52 -46 49 -33 -15 54 -19 89 -9 80 64 -64
92 -109 92 -145 0 -22 5 -51 12 -64 9 -21 8 -32 -7 -60 l-19 -35 -33 37 c-17
20 -32 41 -33 46 0 15 -104 135 -117 135 -17 1 -65 67 -79 107 -6 18 -9 44 -7
57 3 13 -2 48 -11 77 -19 64 -19 60 -3 59 6 0 29 -20 50 -44z m496 -334 c52
-27 59 -38 63 -100 2 -43 0 -55 -15 -65 -17 -10 -30 1 -108 84 -49 52 -89 99
-89 104 0 14 108 -3 149 -23z m1201 -13 c0 -7 -25 -35 -56 -62 -31 -27 -81
-88 -113 -135 -58 -88 -82 -104 -105 -68 -33 52 170 277 251 277 13 0 23 -6
23 -12z m-1309 -79 c31 -40 32 -41 26 -126 -6 -102 -16 -117 -48 -74 -21 28
-23 43 -24 136 0 58 3 105 7 105 3 0 21 -18 39 -41z m-194 -67 c126 -143 233
-272 233 -282 0 -5 -26 -11 -57 -15 -154 -16 -226 -27 -266 -39 -40 -12 -51
-11 -97 4 -94 32 -184 127 -220 234 -21 63 -26 131 -11 155 8 12 17 13 65 1
61 -14 138 -9 202 14 21 8 47 15 56 15 9 1 52 -39 95 -87z m1390 -360 c171
-38 249 -87 295 -187 21 -46 23 -63 23 -230 -1 -203 -10 -250 -55 -289 -33
-28 -86 -42 -123 -32 -33 8 -73 51 -94 100 -53 121 -95 166 -158 166 -46 0
-65 -19 -115 -117 -64 -125 -121 -157 -206 -117 -28 13 -42 32 -74 100 -22 46
-56 101 -76 124 -92 101 -198 59 -279 -111 -44 -94 -70 -120 -127 -126 -66 -7
-103 23 -158 129 -51 97 -70 117 -116 118 -55 0 -94 -37 -144 -138 -26 -51
-56 -99 -66 -107 -50 -38 -135 -26 -178 25 -35 42 -49 142 -44 314 3 130 5
145 31 198 63 129 175 180 436 197 69 5 353 8 631 6 467 -2 512 -4 597 -23z
m-654 -476 c47 -20 73 -52 107 -136 17 -41 41 -85 53 -99 51 -55 135 -66 203
-26 44 26 64 52 117 157 23 46 38 64 55 66 33 5 68 -22 92 -68 l20 -40 -31
-92 c-48 -142 -103 -206 -230 -269 -132 -66 -174 -71 -604 -79 -355 -6 -397
-9 -470 -28 -113 -31 -213 -83 -273 -142 l-52 -51 0 43 c0 49 29 471 33 474 1
1 20 -2 42 -8 53 -14 107 -4 145 29 17 14 51 66 76 114 72 145 124 157 176 42
16 -36 39 -79 51 -95 32 -44 96 -78 146 -78 81 0 125 39 171 150 34 82 60 116
105 136 37 16 30 16 68 0z m1081 -894 c140 -39 212 -97 272 -217 91 -186 134
-622 75 -777 -38 -98 -128 -154 -210 -130 -54 17 -100 71 -166 201 -96 187
-170 248 -265 220 -63 -19 -104 -73 -136 -176 -45 -149 -81 -199 -163 -228
-55 -19 -82 -19 -129 1 -77 32 -117 90 -166 247 -61 191 -178 277 -295 218
-40 -21 -92 -74 -115 -119 -8 -15 -24 -61 -36 -102 -41 -136 -85 -202 -160
-240 -75 -39 -166 -17 -229 56 -33 37 -83 134 -112 217 -31 88 -103 143 -173
133 -74 -11 -111 -54 -182 -203 -92 -192 -146 -242 -249 -231 -76 9 -124 62
-151 168 -33 130 -2 479 61 677 32 103 75 167 144 215 86 60 150 80 281 88 63
4 545 7 1070 6 955 -2 955 -2 1034 -24z m-1055 -687 c48 -24 78 -70 111 -172
78 -236 141 -302 288 -303 76 0 124 19 175 68 47 45 71 89 96 179 24 89 45
128 77 150 32 20 36 15 63 -77 34 -115 43 -172 48 -310 7 -196 -20 -297 -105
-392 -33 -37 -144 -118 -162 -118 -4 0 -10 18 -14 40 -8 51 -64 114 -114 131
-49 16 -139 15 -182 -3 -124 -52 -162 -162 -85 -244 29 -30 31 -36 17 -42 -24
-10 -392 -9 -485 1 -73 8 -77 10 -58 24 53 37 67 126 29 184 -14 21 -46 45
-81 63 -173 86 -367 -34 -303 -188 l16 -38 -28 6 c-15 3 -93 10 -174 16 -213
16 -451 -13 -512 -61 l-25 -20 -15 23 c-31 47 -39 126 -33 342 3 116 8 221 12
234 6 19 12 22 41 16 18 -3 56 -1 84 6 102 24 165 96 234 265 44 108 87 155
141 155 53 0 98 -46 131 -133 85 -227 209 -319 369 -273 43 13 69 29 104 64
49 49 62 76 105 222 48 161 141 234 235 185z m-1504 -818 c0 -223 4 -241 65
-311 47 -53 135 -94 285 -131 330 -83 584 -109 1075 -109 478 0 742 23 1050
94 183 41 285 83 341 139 66 65 74 98 74 324 0 146 3 187 13 187 23 0 205 -71
287 -113 157 -78 266 -170 321 -269 40 -73 41 -169 2 -244 -95 -182 -426 -365
-848 -468 -725 -176 -1727 -177 -2430 -1 -370 93 -642 224 -788 379 -196 210
-106 425 253 603 65 33 205 89 285 116 8 3 15 6 15 6 0 1 0 -90 0 -202z"/>
<path d="M1809 3849 c-18 -18 -21 -30 -17 -71 6 -63 47 -122 112 -162 l47 -30
34 18 c73 39 134 125 135 187 0 36 -36 79 -66 79 -30 0 -66 -17 -77 -36 -12
-20 -25 -17 -59 11 -36 31 -81 32 -109 4z"/>
<path d="M2419 3851 c-61 -49 2 -192 108 -245 31 -16 35 -15 72 3 82 42 145
153 122 213 -20 53 -75 62 -128 22 l-33 -25 -31 25 c-36 31 -78 33 -110 7z"/>
<path d="M3025 3845 c-45 -44 -22 -130 54 -198 78 -71 108 -68 187 15 76 79
93 140 49 183 -32 33 -75 32 -114 -1 l-31 -25 -33 25 c-43 33 -81 33 -112 1z"/>
<path d="M1498 2447 c-47 -43 -47 -109 -3 -197 39 -76 152 -170 205 -170 63 0
185 115 219 206 23 61 25 81 12 117 -18 46 -50 67 -103 67 -41 0 -54 -5 -88
-37 l-41 -36 -27 25 c-59 55 -130 65 -174 25z"/>
<path d="M2354 2439 c-55 -57 -33 -164 54 -261 47 -52 118 -98 152 -98 34 0
105 46 152 98 73 81 103 174 74 230 -41 78 -123 84 -198 14 l-28 -26 -27 26
c-40 36 -66 48 -110 48 -31 0 -46 -7 -69 -31z"/>
<path d="M3217 2445 c-59 -60 -39 -167 51 -267 47 -53 118 -98 153 -98 39 0
144 83 193 152 33 48 40 68 44 116 4 55 2 60 -28 90 -50 50 -118 44 -182 -16
l-28 -26 -27 26 c-61 56 -133 66 -176 23z"/>
<path d="M2160 1343 c-8 -3 -27 -17 -42 -31 -72 -67 4 -193 98 -162 74 25 97
105 47 160 -28 30 -74 45 -103 33z"/>
<path d="M2894 1341 c-65 -28 -83 -110 -35 -163 24 -27 36 -33 71 -33 35 0 47
6 71 33 20 22 29 43 29 67 0 65 -78 120 -136 96z"/>
<path d="M2373 1205 c-10 -27 28 -108 71 -152 66 -66 154 -71 222 -11 62 55
102 167 62 176 -13 2 -20 -7 -29 -41 -42 -170 -231 -173 -279 -4 -13 47 -35
62 -47 32z"/>
</g>
</svg>
